<svg width="16" height="16" viewBox="0 0 16 16" fill="none" xmlns="http://www.w3.org/2000/svg">
<path d="M4 2H8.5C9.14255 2.0002 9.77266 2.17723 10.3213 2.51171C10.8699 2.84618 11.3159 3.32519 11.6105 3.89627C11.905 4.46734 12.0367 5.10846 11.9911 5.7494C11.9455 6.39033 11.7244 7.00636 11.352 7.53C11.9979 7.93183 12.4953 8.53322 12.7688 9.24307C13.0423 9.95292 13.077 10.7326 12.8676 11.4639C12.6583 12.1952 12.2163 12.8384 11.6086 13.2961C11.001 13.7537 10.2607 14.0008 9.5 14H4C3.73478 14 3.48043 13.8946 3.29289 13.7071C3.10536 13.5196 3 13.2652 3 13V3C3 2.73478 3.10536 2.48043 3.29289 2.29289C3.48043 2.10536 3.73478 2 4 2ZM5 9V12H9.5C9.89782 12 10.2794 11.842 10.5607 11.5607C10.842 11.2794 11 10.8978 11 10.5C11 10.1022 10.842 9.72064 10.5607 9.43934C10.2794 9.15804 9.89782 9 9.5 9H5ZM8.5 7C8.89782 7 9.27936 6.84196 9.56066 6.56066C9.84196 6.27936 10 5.89782 10 5.5C10 5.10218 9.84196 4.72064 9.56066 4.43934C9.27936 4.15804 8.89782 4 8.5 4H5V7H8.5Z" fill="black"/>
</svg>
