<svg width="16" height="16" viewBox="0 0 16 16" fill="none" xmlns="http://www.w3.org/2000/svg">
<path d="M10.189 2.04806C10.605 2.19806 10.8186 2.65181 10.6674 3.06281L6.83704 13.4788C6.68504 13.8898 6.22664 14.1013 5.81144 13.9521C5.39544 13.8021 5.18184 13.3483 5.33304 12.9373L9.16344 2.52131C9.31544 2.11031 9.77384 1.89881 10.189 2.04806ZM1.93144 8.19206L4.76024 10.9926C5.07224 11.3016 5.07224 11.8026 4.76024 12.1116C4.68811 12.1847 4.60063 12.243 4.50329 12.2829C4.40596 12.3228 4.30087 12.3434 4.19464 12.3434C4.08841 12.3434 3.98332 12.3228 3.88599 12.2829C3.78865 12.243 3.70117 12.1847 3.62904 12.1116L0.234639 8.75231C0.084409 8.59988 0.000976562 8.39997 0.000976562 8.19244C0.000976562 7.9849 0.084409 7.78499 0.234639 7.63256L3.62904 4.27256C3.70117 4.19944 3.78865 4.1411 3.88599 4.1012C3.98332 4.0613 4.08841 4.0407 4.19464 4.0407C4.30087 4.0407 4.40596 4.0613 4.50329 4.1012C4.60063 4.1411 4.68811 4.19944 4.76024 4.27256C4.9107 4.42503 4.99427 4.6251 4.99427 4.83281C4.99427 5.04052 4.9107 5.24059 4.76024 5.39306L1.93144 8.19206ZM14.069 8.19206L11.2402 5.39306C11.09 5.24063 11.0066 5.04072 11.0066 4.83319C11.0066 4.62565 11.09 4.42574 11.2402 4.27331C11.3124 4.20019 11.3998 4.14185 11.4972 4.10195C11.5945 4.06205 11.6996 4.04145 11.8058 4.04145C11.9121 4.04145 12.0172 4.06205 12.1145 4.10195C12.2118 4.14185 12.2993 4.20019 12.3714 4.27331L15.7658 7.63256C16.0778 7.94156 16.0778 8.44256 15.7658 8.75231L12.3714 12.1108C12.2993 12.1839 12.2118 12.2423 12.1145 12.2822C12.0172 12.3221 11.9121 12.3427 11.8058 12.3427C11.6996 12.3427 11.5945 12.3221 11.4972 12.2822C11.3998 12.2423 11.3124 12.1839 11.2402 12.1108C11.0902 11.9584 11.0069 11.7587 11.0069 11.5513C11.0069 11.344 11.0902 11.1442 11.2402 10.9918L14.069 8.19206Z" fill="black"/>
</svg>
