<svg width="24" height="24" viewBox="0 0 24 24" fill="none" xmlns="http://www.w3.org/2000/svg">
<path d="M18.6217 3.81819C18.6217 3.67353 18.5642 3.53479 18.4619 3.4325C18.3596 3.3302 18.2209 3.27274 18.0762 3.27274H6.07622C5.93155 3.27274 5.79281 3.3302 5.69052 3.4325C5.58823 3.53479 5.53076 3.67353 5.53076 3.81819V4.36364H18.6217V3.81819Z" fill="black"/>
<path d="M19.7019 6.00001C19.7019 5.85535 19.6445 5.71661 19.5422 5.61432C19.4399 5.51203 19.3011 5.45456 19.1565 5.45456H4.97465C4.82999 5.45456 4.69125 5.51203 4.58896 5.61432C4.48667 5.71661 4.4292 5.85535 4.4292 6.00001V6.54547H19.7019V6.00001Z" fill="black"/>
<path d="M19.702 7.63635H4.2984C4.02644 7.63635 3.76561 7.74439 3.5733 7.9367C3.38099 8.12901 3.27295 8.38984 3.27295 8.66181V18.6109C3.27295 18.8829 3.38099 19.1437 3.5733 19.336C3.76561 19.5283 4.02644 19.6364 4.2984 19.6364H19.702C19.974 19.6364 20.2348 19.5283 20.4271 19.336C20.6195 19.1437 20.7275 18.8829 20.7275 18.6109V8.66181C20.7275 8.38984 20.6195 8.12901 20.4271 7.9367C20.2348 7.74439 19.974 7.63635 19.702 7.63635ZM6.85113 9.51817C7.17477 9.51817 7.49115 9.61414 7.76025 9.79395C8.02934 9.97375 8.23908 10.2293 8.36293 10.5283C8.48679 10.8273 8.51919 11.1563 8.45605 11.4738C8.39291 11.7912 8.23706 12.0828 8.00821 12.3116C7.77937 12.5405 7.48779 12.6963 7.17037 12.7595C6.85295 12.8226 6.52393 12.7902 6.22492 12.6663C5.92592 12.5425 5.67035 12.3327 5.49054 12.0636C5.31074 11.7946 5.21477 11.4782 5.21477 11.1545C5.21477 10.7205 5.38717 10.3043 5.69405 9.99745C6.00093 9.69057 6.41714 9.51817 6.85113 9.51817ZM18.5457 17.4545H5.45477L9.52386 13.38C9.59639 13.308 9.69442 13.2677 9.79659 13.2677C9.89875 13.2677 9.99678 13.308 10.0693 13.38L12.0766 15.3873L14.842 12.5454C14.9146 12.4735 15.0126 12.4331 15.1148 12.4331C15.2169 12.4331 15.315 12.4735 15.3875 12.5454L18.5457 15.7036V17.4545Z" fill="black"/>
</svg>
