<svg width="16" height="16" viewBox="0 0 16 16" fill="none" xmlns="http://www.w3.org/2000/svg">
<path d="M6 2.75C6 2.55109 6.07902 2.36032 6.21967 2.21967C6.36032 2.07902 6.55109 2 6.75 2H13.25C13.4489 2 13.6397 2.07902 13.7803 2.21967C13.921 2.36032 14 2.55109 14 2.75C14 2.94891 13.921 3.13968 13.7803 3.28033C13.6397 3.42098 13.4489 3.5 13.25 3.5H10.745L6.887 12.5H9.25C9.44891 12.5 9.63968 12.579 9.78033 12.7197C9.92098 12.8603 10 13.0511 10 13.25C10 13.4489 9.92098 13.6397 9.78033 13.7803C9.63968 13.921 9.44891 14 9.25 14H2.75C2.55109 14 2.36032 13.921 2.21967 13.7803C2.07902 13.6397 2 13.4489 2 13.25C2 13.0511 2.07902 12.8603 2.21967 12.7197C2.36032 12.579 2.55109 12.5 2.75 12.5H5.255L9.113 3.5H6.75C6.55109 3.5 6.36032 3.42098 6.21967 3.28033C6.07902 3.13968 6 2.94891 6 2.75Z" fill="black"/>
</svg>
