<svg width="16" height="16" viewBox="0 0 16 16" fill="none" xmlns="http://www.w3.org/2000/svg">
<path d="M11.055 8.5C11.579 9.036 11.87 9.757 11.866 10.507C11.8673 10.9659 11.7676 11.4195 11.574 11.8357C11.3805 12.2518 11.0978 12.6203 10.746 12.915C9.948 13.597 8.748 14 7.096 14C5.39 14 3.992 13.393 3.194 12.623C3.06263 12.4823 2.99028 12.2966 2.99188 12.1041C2.99349 11.9117 3.06893 11.7272 3.20264 11.5887C3.33634 11.4503 3.5181 11.3684 3.7104 11.3601C3.90269 11.3518 4.09084 11.4176 4.236 11.544C4.716 12.007 5.723 12.5 7.096 12.5C8.518 12.5 9.328 12.154 9.772 11.774C10.207 11.402 10.366 10.935 10.366 10.507C10.366 10.035 10.158 9.65 9.719 9.31C9.271 8.964 8.603 8.687 7.768 8.5H1.75C1.55109 8.5 1.36032 8.42098 1.21967 8.28033C1.07902 8.13968 1 7.94891 1 7.75C1 7.55109 1.07902 7.36032 1.21967 7.21967C1.36032 7.07902 1.55109 7 1.75 7H14.25C14.4489 7 14.6397 7.07902 14.7803 7.21967C14.921 7.36032 15 7.55109 15 7.75C15 7.94891 14.921 8.13968 14.7803 8.28033C14.6397 8.42098 14.4489 8.5 14.25 8.5H11.055ZM7.581 3.25C5.545 3.25 4.803 4.332 4.803 5.036C4.803 5.09067 4.805 5.143 4.809 5.193C4.82412 5.39138 4.75981 5.58764 4.63022 5.73861C4.50063 5.88958 4.31638 5.98288 4.118 5.998C3.91962 6.01312 3.72336 5.94881 3.57239 5.81922C3.42142 5.68963 3.32812 5.50538 3.313 5.307C3.3066 5.21681 3.30327 5.12642 3.303 5.036C3.303 3.204 5.053 1.75 7.581 1.75C8.999 1.75 10.302 2.33 11.095 2.843C11.1777 2.89645 11.2491 2.96567 11.3051 3.04671C11.3611 3.12775 11.4006 3.21902 11.4213 3.31532C11.442 3.41161 11.4435 3.51104 11.4258 3.60793C11.4081 3.70482 11.3714 3.79727 11.318 3.88C11.2646 3.96273 11.1953 4.03413 11.1143 4.09011C11.0333 4.14609 10.942 4.18556 10.8457 4.20627C10.7494 4.22698 10.65 4.22852 10.5531 4.2108C10.4562 4.19308 10.3637 4.15645 10.281 4.103C9.641 3.689 8.619 3.25 7.581 3.25Z" fill="black"/>
</svg>
