<svg width="16" height="16" viewBox="0 0 16 16" fill="none" xmlns="http://www.w3.org/2000/svg">
<path d="M8 11.0625C9.16032 11.0625 10.2731 10.6016 11.0936 9.78109C11.9141 8.96062 12.375 7.84782 12.375 6.6875V2.3125C12.375 2.08044 12.2828 1.85788 12.1187 1.69378C11.9546 1.52969 11.7321 1.4375 11.5 1.4375C11.2679 1.4375 11.0454 1.52969 10.8813 1.69378C10.7172 1.85788 10.625 2.08044 10.625 2.3125V6.6875C10.625 7.38369 10.3484 8.05137 9.85616 8.54366C9.36387 9.03594 8.69619 9.3125 8 9.3125C7.30381 9.3125 6.63613 9.03594 6.14384 8.54366C5.65156 8.05137 5.375 7.38369 5.375 6.6875V2.3125C5.375 2.08044 5.28281 1.85788 5.11872 1.69378C4.95462 1.52969 4.73206 1.4375 4.5 1.4375C4.26794 1.4375 4.04538 1.52969 3.88128 1.69378C3.71719 1.85788 3.625 2.08044 3.625 2.3125V6.6875C3.625 7.84782 4.08594 8.96062 4.90641 9.78109C5.72688 10.6016 6.83968 11.0625 8 11.0625ZM12.375 12.8125H3.625C3.39294 12.8125 3.17038 12.9047 3.00628 13.0688C2.84219 13.2329 2.75 13.4554 2.75 13.6875C2.75 13.9196 2.84219 14.1421 3.00628 14.3062C3.17038 14.4703 3.39294 14.5625 3.625 14.5625H12.375C12.6071 14.5625 12.8296 14.4703 12.9937 14.3062C13.1578 14.1421 13.25 13.9196 13.25 13.6875C13.25 13.4554 13.1578 13.2329 12.9937 13.0688C12.8296 12.9047 12.6071 12.8125 12.375 12.8125Z" fill="black"/>
</svg>
