<svg width="20" height="20" viewBox="0 0 20 20" fill="none" xmlns="http://www.w3.org/2000/svg">
<path d="M9 3.69073H5.21682C4.84908 3.69073 4.4964 3.83682 4.23637 4.09685C3.97634 4.35688 3.83026 4.70955 3.83026 5.07729V14.7832C3.83026 15.1509 3.97634 15.5036 4.23637 15.7636C4.4964 16.0237 4.84908 16.1697 5.21682 16.1697H14.9227C15.2904 16.1697 15.6431 16.0237 15.9032 15.7636C16.1632 15.5036 16.3093 15.1509 16.3093 14.7832V11" stroke="#A9A9B1" stroke-width="1.2" stroke-linecap="round" stroke-linejoin="round"/>
<path d="M16.9286 6.57143H14.0714V9.42857C14.0714 9.74286 13.8143 10 13.5 10C13.1857 10 12.9286 9.74286 12.9286 9.42857V6.57143H10.0714C9.75714 6.57143 9.5 6.31429 9.5 6C9.5 5.68571 9.75714 5.42857 10.0714 5.42857H12.9286V2.57143C12.9286 2.25714 13.1857 2 13.5 2C13.8143 2 14.0714 2.25714 14.0714 2.57143V5.42857H16.9286C17.2429 5.42857 17.5 5.68571 17.5 6C17.5 6.31429 17.2429 6.57143 16.9286 6.57143Z" fill="#A9A9B1"/>
</svg>
