<svg width="16" height="16" viewBox="0 0 16 16" fill="none" xmlns="http://www.w3.org/2000/svg">
<path fill-rule="evenodd" clip-rule="evenodd" d="M12 10.3999C12.1582 10.3999 12.3128 10.3529 12.4443 10.265C12.5759 10.1771 12.6784 10.0522 12.7389 9.90603C12.7995 9.75987 12.8153 9.59904 12.7844 9.44388C12.7536 9.28872 12.6774 9.14618 12.5656 9.0343L8.56558 5.0343C8.41555 4.88433 8.21211 4.80007 7.99998 4.80007C7.78784 4.80007 7.5844 4.88433 7.43438 5.0343L3.43437 9.0343C3.32253 9.14618 3.24636 9.28871 3.21551 9.44388C3.18465 9.59904 3.2005 9.75987 3.26103 9.90602C3.32157 10.0522 3.42408 10.1771 3.55561 10.265C3.68714 10.3529 3.84177 10.3999 3.99997 10.3999L12 10.3999Z" fill="black"/>
</svg>
