<svg width="16" height="16" viewBox="0 0 16 16" fill="none" xmlns="http://www.w3.org/2000/svg">
<path fill-rule="evenodd" clip-rule="evenodd" d="M4.00002 5.6001C3.84182 5.60013 3.68719 5.64707 3.55566 5.73498C3.42413 5.82288 3.32162 5.94781 3.26108 6.09397C3.20055 6.24013 3.1847 6.40096 3.21556 6.55612C3.24641 6.71128 3.32258 6.85382 3.43443 6.9657L7.43443 10.9657C7.58445 11.1157 7.78789 11.1999 8.00002 11.1999C8.21216 11.1999 8.4156 11.1157 8.56562 10.9657L12.5656 6.9657C12.6775 6.85382 12.7536 6.71128 12.7845 6.55612C12.8153 6.40096 12.7995 6.24013 12.739 6.09397C12.6784 5.94781 12.5759 5.82288 12.4444 5.73498C12.3129 5.64707 12.1582 5.60013 12 5.6001H4.00002Z" fill="black"/>
</svg>
