<svg width="20" height="20" viewBox="0 0 20 20" fill="none" xmlns="http://www.w3.org/2000/svg">
<path d="M4.06375 3.8325C4.18716 3.27734 4.49616 2.78085 4.93976 2.42497C5.38336 2.06909 5.93504 1.8751 6.50375 1.875H13.4956C14.0644 1.87496 14.6163 2.06889 15.06 2.42478C15.5037 2.78067 15.8128 3.27724 15.9363 3.8325L16.3344 5.625H16.875C17.0408 5.625 17.1997 5.69085 17.3169 5.80806C17.4342 5.92527 17.5 6.08424 17.5 6.25C17.5 6.41576 17.4342 6.57473 17.3169 6.69194C17.1997 6.80915 17.0408 6.875 16.875 6.875H16.6125L16.8188 7.80313C17.214 8.01792 17.5439 8.33537 17.7738 8.72202C18.0037 9.10866 18.1251 9.55017 18.125 10V16.25C18.125 16.7473 17.9275 17.2242 17.5758 17.5758C17.2242 17.9275 16.7473 18.125 16.25 18.125H15.625C15.1277 18.125 14.6508 17.9275 14.2992 17.5758C13.9475 17.2242 13.75 16.7473 13.75 16.25V15.625H6.25V16.25C6.25 16.7473 6.05246 17.2242 5.70083 17.5758C5.34919 17.9275 4.87228 18.125 4.375 18.125H3.75C3.25272 18.125 2.77581 17.9275 2.42417 17.5758C2.07254 17.2242 1.875 16.7473 1.875 16.25V10C1.87495 9.55017 1.99626 9.10866 2.22616 8.72202C2.45606 8.33537 2.78602 8.01792 3.18125 7.80313L3.3875 6.875H3.125C2.95924 6.875 2.80027 6.80915 2.68306 6.69194C2.56585 6.57473 2.5 6.41576 2.5 6.25C2.5 6.08424 2.56585 5.92527 2.68306 5.80806C2.80027 5.69085 2.95924 5.625 3.125 5.625H3.665L4.06375 3.8325ZM14.7163 4.10375C14.6545 3.82607 14.4999 3.57774 14.278 3.39979C14.0561 3.22184 13.7801 3.12491 13.4956 3.125H6.50437C6.21991 3.12491 5.94393 3.22184 5.722 3.39979C5.50007 3.57774 5.34548 3.82607 5.28375 4.10375L4.52938 7.5H15.4706L14.7163 4.10375ZM15 15.625V16.25C15 16.4158 15.0658 16.5747 15.1831 16.6919C15.3003 16.8092 15.4592 16.875 15.625 16.875H16.25C16.4158 16.875 16.5747 16.8092 16.6919 16.6919C16.8092 16.5747 16.875 16.4158 16.875 16.25V15.625H15ZM3.125 15.625V16.25C3.125 16.4158 3.19085 16.5747 3.30806 16.6919C3.42527 16.8092 3.58424 16.875 3.75 16.875H4.375C4.54076 16.875 4.69973 16.8092 4.81694 16.6919C4.93415 16.5747 5 16.4158 5 16.25V15.625H3.125ZM4.375 8.75C4.04348 8.75 3.72554 8.8817 3.49112 9.11612C3.2567 9.35054 3.125 9.66848 3.125 10V14.375H16.875V10C16.875 9.66848 16.7433 9.35054 16.5089 9.11612C16.2745 8.8817 15.9565 8.75 15.625 8.75H4.375ZM6.875 10.9375C6.875 11.1861 6.77623 11.4246 6.60041 11.6004C6.4246 11.7762 6.18614 11.875 5.9375 11.875C5.68886 11.875 5.4504 11.7762 5.27459 11.6004C5.09877 11.4246 5 11.1861 5 10.9375C5 10.6889 5.09877 10.4504 5.27459 10.2746C5.4504 10.0988 5.68886 10 5.9375 10C6.18614 10 6.4246 10.0988 6.60041 10.2746C6.77623 10.4504 6.875 10.6889 6.875 10.9375ZM14.0625 11.875C14.3111 11.875 14.5496 11.7762 14.7254 11.6004C14.9012 11.4246 15 11.1861 15 10.9375C15 10.6889 14.9012 10.4504 14.7254 10.2746C14.5496 10.0988 14.3111 10 14.0625 10C13.8139 10 13.5754 10.0988 13.3996 10.2746C13.2238 10.4504 13.125 10.6889 13.125 10.9375C13.125 11.1861 13.2238 11.4246 13.3996 11.6004C13.5754 11.7762 13.8139 11.875 14.0625 11.875Z" fill="black"/>
</svg>
