<svg width="20" height="20" viewBox="0 0 20 20" fill="none" xmlns="http://www.w3.org/2000/svg">
<path fill-rule="evenodd" clip-rule="evenodd" d="M12.8884 16.1665C13.705 16.9915 14.28 17.5582 15.0717 17.5582H15.08C15.1717 17.5582 15.2634 17.5499 15.3634 17.5332C16.2967 17.3832 16.6467 16.6999 17.1384 15.7332C17.5134 14.9832 17.7884 14.1832 17.955 13.3499C18.305 11.5832 18.1217 9.76652 17.4467 8.09986C16.7634 6.43319 15.63 5.02486 14.1467 4.01652C13.43 3.53319 12.6467 3.14986 11.7717 2.87486C10.78 2.56652 10.055 2.34152 9.2967 2.90819C8.53837 3.48319 8.53837 4.29152 8.53837 5.64152V9.44152C8.53837 10.5415 8.53837 11.1415 8.78004 11.7332C9.03004 12.3249 9.48004 12.7749 10.2217 13.5082L12.8884 16.1665ZM10.0467 3.90819C10.13 3.84152 10.2134 3.80819 10.3384 3.80819H10.3467C10.5467 3.80819 10.855 3.89152 11.4384 4.07486C12.5251 4.42329 13.522 5.00619 14.3586 5.78234C15.1953 6.55849 15.8512 7.50895 16.28 8.56652C16.8717 10.0082 17.0217 11.5749 16.7217 13.0999C16.5855 13.819 16.3469 14.515 16.0134 15.1665C15.5634 16.0499 15.4467 16.2499 15.1634 16.2915C14.88 16.3332 14.5634 16.0665 13.7717 15.2749L11.105 12.6165C10.4217 11.9415 10.08 11.5999 9.93837 11.2499C9.78837 10.8915 9.78837 10.4082 9.78837 9.44152V5.64152C9.78837 4.48319 9.80504 4.09152 10.0467 3.90819ZM1.8717 11.5165C1.8717 15.5415 5.1467 18.8082 9.16337 18.8082L9.15504 18.7999C10.0884 18.7999 11.0134 18.6249 11.8884 18.2749C12.2134 18.1499 12.3634 17.7832 12.2384 17.4665C12.2093 17.3897 12.1652 17.3194 12.1085 17.26C12.0518 17.2005 11.9837 17.153 11.9083 17.1204C11.8329 17.0877 11.7517 17.0706 11.6696 17.0699C11.5874 17.0693 11.506 17.0851 11.43 17.1165C10.705 17.4082 9.93837 17.5582 9.16337 17.5582C5.83004 17.5582 3.1217 14.8499 3.1217 11.5165C3.1217 8.99986 4.70504 6.72486 7.05504 5.84986C7.38004 5.73319 7.53837 5.37486 7.4217 5.04986C7.3935 4.97307 7.35038 4.90262 7.29483 4.84257C7.23929 4.78252 7.1724 4.73406 7.09804 4.69998C7.02367 4.66589 6.9433 4.64686 6.86155 4.64398C6.7798 4.6411 6.69828 4.65442 6.6217 4.68319C3.78004 5.73319 1.8717 8.48319 1.8717 11.5165Z" fill="black"/>
</svg>
