<svg width="20" height="20" viewBox="0 0 20 20" fill="none" xmlns="http://www.w3.org/2000/svg">
<path d="M6.8375 4.02515C7.01328 3.84959 7.25156 3.75098 7.5 3.75098C7.74844 3.75098 7.98672 3.84959 8.1625 4.02515L13.475 9.33765C13.6506 9.51343 13.7492 9.75171 13.7492 10.0002C13.7492 10.2486 13.6506 10.4869 13.475 10.6627L8.1625 15.9752C8.0755 16.0622 7.97221 16.1312 7.85854 16.1782C7.74487 16.2253 7.62304 16.2496 7.5 16.2496C7.37696 16.2496 7.25513 16.2253 7.14146 16.1782C7.02779 16.1312 6.9245 16.0622 6.8375 15.9752C6.7505 15.8882 6.68149 15.7849 6.6344 15.6712C6.58732 15.5575 6.56308 15.4357 6.56308 15.3127C6.56308 15.1896 6.58732 15.0678 6.6344 14.9541C6.68149 14.8404 6.7505 14.7372 6.8375 14.6502L11.4863 10.0002L6.8375 5.35015C6.66194 5.17437 6.56333 4.93609 6.56333 4.68765C6.56333 4.43921 6.66194 4.20093 6.8375 4.02515Z" fill="black"/>
</svg>
