<svg width="20" height="20" viewBox="0 0 20 20" fill="none" xmlns="http://www.w3.org/2000/svg">
<path d="M7.29 4.71002C7.1973 4.80254 7.12375 4.91242 7.07357 5.0334C7.02339 5.15437 6.99756 5.28405 6.99756 5.41502C6.99756 5.54599 7.02339 5.67567 7.07357 5.79665C7.12375 5.91762 7.1973 6.02751 7.29 6.12002L11.17 10L7.29 13.88C7.19742 13.9726 7.12398 14.0825 7.07388 14.2035C7.02377 14.3244 6.99798 14.4541 6.99798 14.585C6.99798 14.716 7.02377 14.8456 7.07388 14.9666C7.12398 15.0875 7.19742 15.1974 7.29 15.29C7.38258 15.3826 7.4925 15.456 7.61346 15.5061C7.73442 15.5563 7.86407 15.582 7.995 15.582C8.12593 15.582 8.25558 15.5563 8.37655 15.5061C8.49751 15.456 8.60742 15.3826 8.7 15.29L13.29 10.7C13.3827 10.6075 13.4563 10.4976 13.5064 10.3766C13.5566 10.2557 13.5824 10.126 13.5824 9.99502C13.5824 9.86405 13.5566 9.73437 13.5064 9.6134C13.4563 9.49242 13.3827 9.38254 13.29 9.29002L8.7 4.70002C8.32 4.32002 7.68 4.32002 7.29 4.71002Z" fill="black"/>
</svg>
