<svg width="20" height="20" viewBox="0 0 20 20" fill="none" xmlns="http://www.w3.org/2000/svg">
<path d="M12.2584 5.5916C12.1813 5.51435 12.0897 5.45306 11.9889 5.41124C11.8881 5.36943 11.78 5.3479 11.6709 5.3479C11.5617 5.3479 11.4536 5.36943 11.3528 5.41124C11.252 5.45306 11.1604 5.51435 11.0834 5.5916L7.25835 9.4166C7.1811 9.4937 7.11981 9.58527 7.07799 9.68608C7.03617 9.7869 7.01465 9.89496 7.01465 10.0041C7.01465 10.1132 7.03617 10.2213 7.07799 10.3221C7.11981 10.4229 7.1811 10.5145 7.25835 10.5916L11.0834 14.4166C11.1605 14.4938 11.2521 14.555 11.3529 14.5967C11.4537 14.6385 11.5617 14.66 11.6709 14.66C11.78 14.66 11.888 14.6385 11.9888 14.5967C12.0896 14.555 12.1812 14.4938 12.2584 14.4166C12.3355 14.3395 12.3967 14.2479 12.4385 14.1471C12.4802 14.0463 12.5017 13.9382 12.5017 13.8291C12.5017 13.72 12.4802 13.612 12.4385 13.5112C12.3967 13.4103 12.3355 13.3188 12.2584 13.2416L9.02502 9.99994L12.2584 6.7666C12.5834 6.4416 12.575 5.90827 12.2584 5.5916Z" fill="black"/>
</svg>
