<svg width="20" height="20" viewBox="0 0 20 20" fill="none" xmlns="http://www.w3.org/2000/svg">
<path d="M12.71 15.29C12.8027 15.1975 12.8762 15.0876 12.9264 14.9666C12.9766 14.8456 13.0024 14.7159 13.0024 14.585C13.0024 14.454 12.9766 14.3243 12.9264 14.2034C12.8762 14.0824 12.8027 13.9725 12.71 13.88L8.83 9.99998L12.71 6.11998C12.8026 6.0274 12.876 5.91749 12.9261 5.79652C12.9762 5.67556 13.002 5.54591 13.002 5.41498C13.002 5.28405 12.9762 5.1544 12.9261 5.03343C12.876 4.91247 12.8026 4.80256 12.71 4.70998C12.6174 4.6174 12.5075 4.54396 12.3865 4.49385C12.2656 4.44375 12.1359 4.41796 12.005 4.41796C11.8741 4.41796 11.7444 4.44375 11.6235 4.49385C11.5025 4.54396 11.3926 4.6174 11.3 4.70998L6.71 9.29998C6.61729 9.39249 6.54375 9.50238 6.49357 9.62335C6.44338 9.74433 6.41755 9.87401 6.41755 10.005C6.41755 10.1359 6.44338 10.2656 6.49357 10.3866C6.54375 10.5076 6.61729 10.6175 6.71 10.71L11.3 15.3C11.68 15.68 12.32 15.68 12.71 15.29Z" fill="black"/>
</svg>
