<svg width="20" height="20" viewBox="0 0 20 20" fill="none" xmlns="http://www.w3.org/2000/svg">
<path d="M4.34334 12.5925L2.10417 10.3533C2.01054 10.2596 1.95795 10.1325 1.95795 10C1.95795 9.86751 2.01054 9.74042 2.10417 9.64667L4.34334 7.40751C4.43709 7.31387 4.56417 7.26128 4.69667 7.26128C4.82917 7.26128 4.95626 7.31387 5.05001 7.40751L7.28917 9.64667C7.38281 9.74042 7.4354 9.86751 7.4354 10C7.4354 10.1325 7.38281 10.2596 7.28917 10.3533L5.05001 12.5925C4.95626 12.6861 4.82917 12.7387 4.69667 12.7387C4.56417 12.7387 4.43709 12.6861 4.34334 12.5925ZM9.64667 17.8958L7.40751 15.6567C7.36102 15.6102 7.32414 15.5551 7.29898 15.4944C7.27381 15.4337 7.26086 15.3686 7.26086 15.3029C7.26086 15.2372 7.27381 15.1722 7.29898 15.1115C7.32414 15.0508 7.36102 14.9956 7.40751 14.9492L9.64667 12.71C9.74042 12.6164 9.86751 12.5638 10 12.5638C10.1325 12.5638 10.2596 12.6164 10.3533 12.71L12.5925 14.9492C12.639 14.9956 12.6759 15.0508 12.701 15.1115C12.7262 15.1722 12.7392 15.2372 12.7392 15.3029C12.7392 15.3686 12.7262 15.4337 12.701 15.4944C12.6759 15.5551 12.639 15.6102 12.5925 15.6567L10.3533 17.8958C10.2596 17.9895 10.1325 18.0421 10 18.0421C9.86751 18.0421 9.74042 17.9895 9.64667 17.8958ZM9.64667 7.29001L7.40751 5.05001C7.31387 4.95626 7.26128 4.82917 7.26128 4.69667C7.26128 4.56417 7.31387 4.43709 7.40751 4.34334L9.64667 2.10417C9.74042 2.01054 9.86751 1.95795 10 1.95795C10.1325 1.95795 10.2596 2.01054 10.3533 2.10417L12.5925 4.34334C12.6861 4.43709 12.7387 4.56417 12.7387 4.69667C12.7387 4.82917 12.6861 4.95626 12.5925 5.05001L10.3533 7.29001C10.2596 7.38364 10.1325 7.43623 10 7.43623C9.86751 7.43623 9.74042 7.38364 9.64667 7.29001ZM14.95 12.5925L12.7108 10.3533C12.6172 10.2596 12.5646 10.1325 12.5646 10C12.5646 9.86751 12.6172 9.74042 12.7108 9.64667L14.95 7.40751C15.0438 7.31387 15.1708 7.26128 15.3033 7.26128C15.4358 7.26128 15.5629 7.31387 15.6567 7.40751L17.8958 9.64667C17.9895 9.74042 18.0421 9.86751 18.0421 10C18.0421 10.1325 17.9895 10.2596 17.8958 10.3533L15.6567 12.5925C15.5629 12.6861 15.4358 12.7387 15.3033 12.7387C15.1708 12.7387 15.0438 12.6861 14.95 12.5925Z" stroke="#93939A" stroke-width="1.2"/>
</svg>
