<svg width="20" height="20" viewBox="0 0 20 20" fill="none" xmlns="http://www.w3.org/2000/svg">
<g clip-path="url(#clip0_39_79)">
<path fill-rule="evenodd" clip-rule="evenodd" d="M11.9 1.66669C12.2498 1.66678 12.5907 1.77692 12.8744 1.98153C13.1581 2.18613 13.3703 2.47481 13.4808 2.80669L13.9333 4.16669H16.6667C16.8877 4.16669 17.0996 4.25448 17.2559 4.41076C17.4122 4.56705 17.5 4.77901 17.5 5.00002C17.5 5.22103 17.4122 5.433 17.2559 5.58928C17.0996 5.74556 16.8877 5.83335 16.6667 5.83335H15.8333V15.8334C15.8333 16.4964 15.5699 17.1323 15.1011 17.6011C14.6323 18.07 13.9964 18.3334 13.3333 18.3334H6.66667C6.00363 18.3334 5.36774 18.07 4.8989 17.6011C4.43006 17.1323 4.16667 16.4964 4.16667 15.8334V5.83335H3.33333C3.11232 5.83335 2.90036 5.74556 2.74408 5.58928C2.5878 5.433 2.5 5.22103 2.5 5.00002C2.5 4.77901 2.5878 4.56705 2.74408 4.41076C2.90036 4.25448 3.11232 4.16669 3.33333 4.16669H6.06667L6.51917 2.80669C6.62975 2.47468 6.84203 2.1859 7.12592 1.98128C7.4098 1.77667 7.75089 1.6666 8.10083 1.66669H11.9ZM14.1667 5.83335H5.83333V15.8334C5.83333 16.0544 5.92113 16.2663 6.07741 16.4226C6.23369 16.5789 6.44565 16.6667 6.66667 16.6667H13.3333C13.5543 16.6667 13.7663 16.5789 13.9226 16.4226C14.0789 16.2663 14.1667 16.0544 14.1667 15.8334V5.83335ZM11.9 3.33335H8.1L7.8225 4.16669H12.1775L11.9 3.33335Z" fill="#A9A9B1"/>
</g>
<defs>
<clipPath id="clip0_39_79">
<rect width="20" height="20" fill="white"/>
</clipPath>
</defs>
</svg>
