<svg width="20" height="20" viewBox="0 0 20 20" fill="none" xmlns="http://www.w3.org/2000/svg">
<path d="M7.27278 17.2725H10.0001M10.0001 17.2725H12.7273M10.0001 17.2725V14.5452M10.0001 14.5452H16.3637C16.8459 14.5452 17.3084 14.3537 17.6493 14.0127C17.9903 13.6717 18.1819 13.2093 18.1819 12.7271V4.54523C18.1819 4.06302 17.9903 3.60056 17.6493 3.25958C17.3084 2.91861 16.8459 2.72705 16.3637 2.72705H3.63642C3.15421 2.72705 2.69175 2.91861 2.35077 3.25958C2.0098 3.60056 1.81824 4.06302 1.81824 4.54523V12.7271C1.81824 13.2093 2.0098 13.6717 2.35077 14.0127C2.69175 14.3537 3.15421 14.5452 3.63642 14.5452H10.0001Z" stroke="black" stroke-width="1.5" stroke-linecap="round" stroke-linejoin="round"/>
</svg>
