<svg width="20" height="20" viewBox="0 0 20 20" fill="none" xmlns="http://www.w3.org/2000/svg">
<g clip-path="url(#clip0_56_87)">
<path d="M7 2.5C7.39782 2.5 7.77936 2.65804 8.06066 2.93934C8.34196 3.22064 8.5 3.60218 8.5 4C8.5 4.39782 8.34196 4.77936 8.06066 5.06066C7.77936 5.34196 7.39782 5.5 7 5.5C6.60218 5.5 6.22064 5.34196 5.93934 5.06066C5.65804 4.77936 5.5 4.39782 5.5 4C5.5 3.60218 5.65804 3.22064 5.93934 2.93934C6.22064 2.65804 6.60218 2.5 7 2.5ZM8.5 10C8.5 9.60218 8.34196 9.22064 8.06066 8.93934C7.77936 8.65804 7.39782 8.5 7 8.5C6.60218 8.5 6.22064 8.65804 5.93934 8.93934C5.65804 9.22064 5.5 9.60218 5.5 10C5.5 10.3978 5.65804 10.7794 5.93934 11.0607C6.22064 11.342 6.60218 11.5 7 11.5C7.39782 11.5 7.77936 11.342 8.06066 11.0607C8.34196 10.7794 8.5 10.3978 8.5 10ZM8.5 16C8.5 15.6022 8.34196 15.2206 8.06066 14.9393C7.77936 14.658 7.39782 14.5 7 14.5C6.60218 14.5 6.22064 14.658 5.93934 14.9393C5.65804 15.2206 5.5 15.6022 5.5 16C5.5 16.3978 5.65804 16.7794 5.93934 17.0607C6.22064 17.342 6.60218 17.5 7 17.5C7.39782 17.5 7.77936 17.342 8.06066 17.0607C8.34196 16.7794 8.5 16.3978 8.5 16ZM14.5 10C14.5 9.60218 14.342 9.22064 14.0607 8.93934C13.7794 8.65804 13.3978 8.5 13 8.5C12.6022 8.5 12.2206 8.65804 11.9393 8.93934C11.658 9.22064 11.5 9.60218 11.5 10C11.5 10.3978 11.658 10.7794 11.9393 11.0607C12.2206 11.342 12.6022 11.5 13 11.5C13.3978 11.5 13.7794 11.342 14.0607 11.0607C14.342 10.7794 14.5 10.3978 14.5 10ZM13 14.5C13.3978 14.5 13.7794 14.658 14.0607 14.9393C14.342 15.2206 14.5 15.6022 14.5 16C14.5 16.3978 14.342 16.7794 14.0607 17.0607C13.7794 17.342 13.3978 17.5 13 17.5C12.6022 17.5 12.2206 17.342 11.9393 17.0607C11.658 16.7794 11.5 16.3978 11.5 16C11.5 15.6022 11.658 15.2206 11.9393 14.9393C12.2206 14.658 12.6022 14.5 13 14.5ZM14.5 4C14.5 3.60218 14.342 3.22064 14.0607 2.93934C13.7794 2.65804 13.3978 2.5 13 2.5C12.6022 2.5 12.2206 2.65804 11.9393 2.93934C11.658 3.22064 11.5 3.60218 11.5 4C11.5 4.39782 11.658 4.77936 11.9393 5.06066C12.2206 5.34196 12.6022 5.5 13 5.5C13.3978 5.5 13.7794 5.34196 14.0607 5.06066C14.342 4.77936 14.5 4.39782 14.5 4Z" fill="#464646"/>
</g>
<defs>
<clipPath id="clip0_56_87">
<rect width="20" height="20" fill="white"/>
</clipPath>
</defs>
</svg>
