<svg width="20" height="20" viewBox="0 0 20 20" fill="none" xmlns="http://www.w3.org/2000/svg">
<path d="M10 17.9999C11.0508 18.0012 12.0914 17.7949 13.0622 17.3928C14.033 16.9907 14.9147 16.4007 15.6568 15.6567C16.4007 14.9147 16.9907 14.0329 17.3928 13.0622C17.795 12.0914 18.0013 11.0507 18 9.99997C18.0013 8.94921 17.795 7.90855 17.3928 6.93778C16.9907 5.96701 16.4007 5.08526 15.6568 4.3432C14.9147 3.59926 14.033 3.00929 13.0622 2.60717C12.0914 2.20505 11.0508 1.99871 10 2.00001C8.94924 1.99871 7.90858 2.20505 6.9378 2.60717C5.96703 3.00929 5.08527 3.59926 4.34321 4.3432C3.59927 5.08526 3.00929 5.96701 2.60717 6.93778C2.20505 7.90855 1.99871 8.94921 2.00001 9.99997C1.99871 11.0507 2.20505 12.0914 2.60717 13.0622C3.00929 14.0329 3.59927 14.9147 4.34321 15.6567C5.08527 16.4007 5.96703 16.9907 6.9378 17.3928C7.90858 17.7949 8.94924 18.0012 10 17.9999Z" stroke="black" stroke-width="1.2" stroke-linejoin="round"/>
<path d="M10 11.85V10.25C10.4747 10.25 10.9387 10.1092 11.3334 9.84552C11.7281 9.58181 12.0357 9.20698 12.2173 8.76844C12.399 8.3299 12.4465 7.84734 12.3539 7.38179C12.2613 6.91624 12.0327 6.4886 11.6971 6.15295C11.3614 5.81731 10.9338 5.58873 10.4682 5.49613C10.0027 5.40352 9.52011 5.45105 9.08157 5.6327C8.64302 5.81435 8.26819 6.12196 8.00448 6.51664C7.74076 6.91132 7.60001 7.37533 7.60001 7.85" stroke="black" stroke-width="1.2" stroke-linecap="round" stroke-linejoin="round"/>
<path fill-rule="evenodd" clip-rule="evenodd" d="M10 15.45C10.2652 15.45 10.5196 15.3446 10.7071 15.1571C10.8946 14.9696 11 14.7152 11 14.45C11 14.1848 10.8946 13.9304 10.7071 13.7429C10.5196 13.5554 10.2652 13.45 10 13.45C9.73478 13.45 9.48043 13.5554 9.29289 13.7429C9.10536 13.9304 9 14.1848 9 14.45C9 14.7152 9.10536 14.9696 9.29289 15.1571C9.48043 15.3446 9.73478 15.45 10 15.45Z" fill="black"/>
</svg>
