<svg width="20" height="20" viewBox="0 0 20 20" fill="none" xmlns="http://www.w3.org/2000/svg">
<path d="M9.375 15C9.375 15.1658 9.44085 15.3247 9.55806 15.4419C9.67527 15.5592 9.83424 15.625 10 15.625C10.1658 15.625 10.3247 15.5592 10.4419 15.4419C10.5592 15.3247 10.625 15.1658 10.625 15V12.5C10.625 12.3342 10.5592 12.1753 10.4419 12.0581C10.3247 11.9408 10.1658 11.875 10 11.875C9.83424 11.875 9.67527 11.9408 9.55806 12.0581C9.44085 12.1753 9.375 12.3342 9.375 12.5V15Z" fill="white"/>
<path fill-rule="evenodd" clip-rule="evenodd" d="M10 1.04169C9.41002 1.04169 8.87419 1.21085 8.29169 1.49335C7.73002 1.76669 7.08002 2.17002 6.26919 2.67335L4.54669 3.74252C3.78002 4.21919 3.16419 4.60085 2.69085 4.96335C2.20002 5.33835 1.82335 5.72169 1.55085 6.21919C1.27919 6.71502 1.15752 7.24335 1.09835 7.86752C1.04169 8.47169 1.04169 9.21169 1.04169 10.1392V11.4834C1.04169 13.07 1.04169 14.3225 1.16919 15.3017C1.29919 16.3059 1.57419 17.1167 2.19419 17.7575C2.81669 18.4017 3.60835 18.69 4.59002 18.8259C5.54002 18.9584 6.75502 18.9584 8.28502 18.9584H11.715C13.245 18.9584 14.46 18.9584 15.41 18.8259C16.3909 18.69 17.1834 18.4017 17.8067 17.7575C18.4259 17.1167 18.7009 16.3059 18.8317 15.3017C18.9584 14.3225 18.9584 13.07 18.9584 11.4834V10.1392C18.9584 9.21169 18.9584 8.47252 18.9017 7.86752C18.8434 7.24252 18.7209 6.71502 18.4492 6.21919C18.1767 5.72169 17.7992 5.33919 17.3092 4.96335C16.8359 4.60002 16.2209 4.21919 15.4534 3.74252L13.7309 2.67335C12.92 2.17002 12.27 1.76669 11.7075 1.49335C11.1267 1.21002 10.5909 1.04169 10 1.04169ZM6.90002 3.75335C7.74585 3.22835 8.34169 2.86002 8.83919 2.61752C9.32335 2.38169 9.66669 2.29169 10 2.29169C10.3334 2.29169 10.6767 2.38169 11.1609 2.61752C11.6592 2.85919 12.2542 3.22835 13.1 3.75335L14.7667 4.78752C15.5675 5.28502 16.13 5.63419 16.55 5.95585C16.9575 6.26835 17.1917 6.52585 17.3525 6.81919C17.5134 7.11335 17.6075 7.45752 17.6567 7.98419C17.7075 8.52419 17.7084 9.20502 17.7084 10.17V11.4375C17.7084 13.0792 17.7067 14.2509 17.5917 15.14C17.4784 16.0134 17.2642 16.52 16.9084 16.8892C16.5542 17.255 16.0725 17.4725 15.2384 17.5884C14.3834 17.7067 13.2559 17.7084 11.6667 17.7084H8.33335C6.74335 17.7084 5.61669 17.7067 4.76169 17.5884C3.92752 17.4717 3.44585 17.255 3.09252 16.8884C2.73585 16.52 2.52169 16.0134 2.40919 15.14C2.29252 14.2509 2.29169 13.08 2.29169 11.4375V10.17C2.29169 9.20502 2.29169 8.52419 2.34335 7.98419C2.39252 7.45752 2.48669 7.11335 2.64752 6.81919C2.80835 6.52585 3.04252 6.26835 3.45085 5.95585C3.87002 5.63419 4.43252 5.28502 5.23335 4.78752L6.90002 3.75335Z" fill="white"/>
</svg>
