<svg width="20" height="20" viewBox="0 0 20 20" fill="none" xmlns="http://www.w3.org/2000/svg">
<path d="M12.4999 8.33335L11.8833 8.23085C11.8684 8.32038 11.8732 8.41208 11.8973 8.49957C11.9214 8.58706 11.9643 8.66825 12.023 8.73748C12.0817 8.80672 12.1548 8.86234 12.2371 8.90048C12.3195 8.93862 12.4092 8.95837 12.4999 8.95835V8.33335ZM3.33325 8.33335V7.70835C3.16749 7.70835 3.00852 7.7742 2.89131 7.89141C2.7741 8.00862 2.70825 8.16759 2.70825 8.33335H3.33325ZM4.99992 17.2917H14.4666V16.0417H4.99992V17.2917ZM15.4666 7.70835H12.4999V8.95835H15.4666V7.70835ZM13.1166 8.43585L13.7883 4.40669L12.5549 4.20085L11.8833 8.23085L13.1166 8.43585ZM12.3499 2.70835H12.1716V3.95835H12.3491L12.3499 2.70835ZM9.57075 4.10002L7.47492 7.24419L8.51492 7.93752L10.6108 4.79335L9.57075 4.10002ZM6.60825 7.70835H3.33325V8.95835H6.60825V7.70835ZM2.70825 8.33335V15H3.95825V8.33335H2.70825ZM16.7141 15.45L17.7141 10.45L16.4891 10.2042L15.4891 15.2042L16.7141 15.45ZM7.47492 7.24419C7.37984 7.38692 7.25098 7.50314 7.09979 7.58411C6.9486 7.66509 6.77976 7.70748 6.60825 7.70752V8.95752C7.37492 8.95752 8.08992 8.57502 8.51492 7.93752L7.47492 7.24419ZM13.7883 4.40669C13.823 4.19783 13.8118 3.98308 13.7555 3.77897C13.6992 3.57487 13.5992 3.38546 13.4623 3.22393C13.3254 3.06239 13.155 2.9326 12.9629 2.84356C12.7708 2.75453 12.5616 2.70839 12.3499 2.70835L12.3491 3.95835C12.3793 3.95843 12.41 3.96507 12.4373 3.97782C12.4647 3.99057 12.489 4.00912 12.5085 4.03219C12.528 4.05526 12.5423 4.08229 12.5503 4.11141C12.5583 4.14054 12.5599 4.17106 12.5549 4.20085L13.7883 4.40669ZM15.4666 8.95752C16.1249 8.95752 16.6166 9.55919 16.4883 10.2034L17.7141 10.4492C17.7804 10.1168 17.7721 9.77294 17.6899 9.44409C17.6077 9.11524 17.4535 8.80873 17.2386 8.54665C17.0236 8.28457 16.7531 8.07344 16.4467 7.92848C16.1403 7.78352 15.8056 7.70834 15.4666 7.70835V8.95752ZM14.4666 17.2917C14.9963 17.2918 15.5098 17.1075 15.9195 16.7718C16.3293 16.436 16.6101 15.9686 16.7141 15.4492L15.4891 15.2034C15.4418 15.4397 15.3141 15.6523 15.1277 15.805C14.9412 15.9578 14.7076 16.0419 14.4666 16.0417V17.2917ZM12.1716 2.70835C11.6571 2.70839 11.1507 2.8346 10.6971 3.07737C10.2435 3.32014 9.85693 3.67113 9.57159 4.09919L10.6108 4.79335C10.782 4.5364 11.0141 4.3249 11.2864 4.17923C11.5587 4.03356 11.8628 3.95824 12.1716 3.95835V2.70835ZM4.99992 16.0417C4.42492 16.0417 3.95825 15.575 3.95825 15H2.70825C2.70825 15.6078 2.94969 16.1907 3.37947 16.6205C3.80924 17.0502 4.39213 17.2917 4.99992 17.2917V16.0417Z" fill="black"/>
<path d="M6.6665 8.33337V16.6667" stroke="black" stroke-width="1.5"/>
</svg>
