<svg width="20" height="20" viewBox="0 0 20 20" fill="none" xmlns="http://www.w3.org/2000/svg">
<path fill-rule="evenodd" clip-rule="evenodd" d="M2.70831 5.83331C2.70831 5.66755 2.77416 5.50858 2.89137 5.39137C3.00858 5.27416 3.16755 5.20831 3.33331 5.20831H16.6666C16.8324 5.20831 16.9914 5.27416 17.1086 5.39137C17.2258 5.50858 17.2916 5.66755 17.2916 5.83331C17.2916 5.99907 17.2258 6.15804 17.1086 6.27525C16.9914 6.39247 16.8324 6.45831 16.6666 6.45831H3.33331C3.16755 6.45831 3.00858 6.39247 2.89137 6.27525C2.77416 6.15804 2.70831 5.99907 2.70831 5.83331ZM2.70831 9.99998C2.70831 9.83422 2.77416 9.67525 2.89137 9.55804C3.00858 9.44083 3.16755 9.37498 3.33331 9.37498H12.5C12.6657 9.37498 12.8247 9.44083 12.9419 9.55804C13.0591 9.67525 13.125 9.83422 13.125 9.99998C13.125 10.1657 13.0591 10.3247 12.9419 10.4419C12.8247 10.5591 12.6657 10.625 12.5 10.625H3.33331C3.16755 10.625 3.00858 10.5591 2.89137 10.4419C2.77416 10.3247 2.70831 10.1657 2.70831 9.99998ZM2.70831 14.1666C2.70831 14.0009 2.77416 13.8419 2.89137 13.7247C3.00858 13.6075 3.16755 13.5416 3.33331 13.5416H7.49998C7.66574 13.5416 7.82471 13.6075 7.94192 13.7247C8.05913 13.8419 8.12498 14.0009 8.12498 14.1666C8.12498 14.3324 8.05913 14.4914 7.94192 14.6086C7.82471 14.7258 7.66574 14.7916 7.49998 14.7916H3.33331C3.16755 14.7916 3.00858 14.7258 2.89137 14.6086C2.77416 14.4914 2.70831 14.3324 2.70831 14.1666Z" fill="#A9A9B1"/>
</svg>
