<svg width="20" height="20" viewBox="0 0 20 20" fill="none" xmlns="http://www.w3.org/2000/svg">
<path d="M1.75 7.30225V14.125C1.75 14.8543 2.03973 15.5538 2.55546 16.0695C3.07118 16.5853 3.77065 16.875 4.5 16.875H15.5C16.2293 16.875 16.9288 16.5853 17.4445 16.0695C17.9603 15.5538 18.25 14.8543 18.25 14.125V5.875C18.25 5.14565 17.9603 4.44618 17.4445 3.93046C16.9288 3.41473 16.2293 3.125 15.5 3.125H4.5C3.77065 3.125 3.07118 3.41473 2.55546 3.93046C2.03973 4.44618 1.75 5.14565 1.75 5.875V7.30225ZM4.5 4.5H15.5C15.8647 4.5 16.2144 4.64487 16.4723 4.90273C16.7301 5.16059 16.875 5.51033 16.875 5.875V6.8925L10 10.594L3.125 6.8925V5.875C3.125 5.51033 3.26987 5.16059 3.52773 4.90273C3.78559 4.64487 4.13533 4.5 4.5 4.5ZM3.125 8.4545L9.67413 11.98C9.77428 12.0339 9.88625 12.0621 10 12.0621C10.1137 12.0621 10.2257 12.0339 10.3259 11.98L16.875 8.4545V14.125C16.875 14.4897 16.7301 14.8394 16.4723 15.0973C16.2144 15.3551 15.8647 15.5 15.5 15.5H4.5C4.13533 15.5 3.78559 15.3551 3.52773 15.0973C3.26987 14.8394 3.125 14.4897 3.125 14.125V8.4545Z" fill="black"/>
</svg>
