<svg width="20" height="20" viewBox="0 0 20 20" fill="none" xmlns="http://www.w3.org/2000/svg">
<path d="M10.0698 3.69073H5.21682C4.84908 3.69073 4.4964 3.83682 4.23637 4.09685C3.97634 4.35688 3.83026 4.70955 3.83026 5.07729V14.7832C3.83026 15.1509 3.97634 15.5036 4.23637 15.7636C4.4964 16.0237 4.84908 16.1697 5.21682 16.1697H14.9227C15.2904 16.1697 15.6431 16.0237 15.9032 15.7636C16.1632 15.5036 16.3093 15.1509 16.3093 14.7832V9.93024" stroke="#93939A" stroke-width="1.2" stroke-linecap="round" stroke-linejoin="round"/>
<path d="M14.4894 3.43075C14.7652 3.15494 15.1393 3 15.5293 3C15.9194 3 16.2934 3.15494 16.5693 3.43075C16.8451 3.70655 17 4.08062 17 4.47066C17 4.86071 16.8451 5.23478 16.5693 5.51058L10.3207 11.7598C10.1561 11.9243 9.95275 12.0447 9.72937 12.1099L7.73758 12.6923C7.67793 12.7096 7.61469 12.7107 7.55449 12.6953C7.4943 12.6798 7.43935 12.6485 7.39541 12.6046C7.35147 12.5606 7.32015 12.5057 7.30473 12.4455C7.28931 12.3853 7.29035 12.3221 7.30775 12.2624L7.8901 10.2706C7.95564 10.0474 8.07627 9.8443 8.2409 9.67996L14.4894 3.43075Z" stroke="#93939A" stroke-width="1.2" stroke-linecap="round" stroke-linejoin="round"/>
</svg>
