<svg width="20" height="20" viewBox="0 0 20 20" fill="none" xmlns="http://www.w3.org/2000/svg">
<g clip-path="url(#clip0_3845_18)">
<path d="M1.66663 9.99984V4.99984H5.41663V4.1665C5.41663 3.50346 5.68002 2.86758 6.14886 2.39874C6.6177 1.9299 7.25358 1.6665 7.91663 1.6665C8.57967 1.6665 9.21555 1.9299 9.68439 2.39874C10.1532 2.86758 10.4166 3.50346 10.4166 4.1665V4.99984H14.1666V9.99984H15.8333C16.4963 9.99984 17.1322 10.2632 17.6011 10.7321C18.0699 11.2009 18.3333 11.8368 18.3333 12.4998C18.3333 13.1629 18.0699 13.7988 17.6011 14.2676C17.1322 14.7364 16.4963 14.9998 15.8333 14.9998H14.1666V18.3332H1.66663V14.9998H3.33329C3.99633 14.9998 4.63222 14.7364 5.10106 14.2676C5.5699 13.7988 5.83329 13.1629 5.83329 12.4998C5.83329 11.8368 5.5699 11.2009 5.10106 10.7321C4.63222 10.2632 3.99633 9.99984 3.33329 9.99984H1.66663Z" stroke="black" stroke-width="1.5" stroke-linejoin="round"/>
</g>
<defs>
<clipPath id="clip0_3845_18">
<rect width="20" height="20" fill="white"/>
</clipPath>
</defs>
</svg>
