<svg width="20" height="20" viewBox="0 0 20 20" fill="none" xmlns="http://www.w3.org/2000/svg">
<path d="M2.5 6.66665V4.99998C2.5 4.55795 2.67559 4.13403 2.98816 3.82147C3.30072 3.50891 3.72464 3.33331 4.16667 3.33331H15.8333C16.2754 3.33331 16.6993 3.50891 17.0118 3.82147C17.3244 4.13403 17.5 4.55795 17.5 4.99998V6.66665M2.5 6.66665V11.6666M2.5 6.66665H7.5M17.5 6.66665V11.6666M17.5 6.66665H7.5M2.5 11.6666V15C2.5 15.442 2.67559 15.8659 2.98816 16.1785C3.30072 16.4911 3.72464 16.6666 4.16667 16.6666H7.5M2.5 11.6666H7.5M7.5 6.66665V11.6666M17.5 11.6666V15C17.5 15.442 17.3244 15.8659 17.0118 16.1785C16.6993 16.4911 16.2754 16.6666 15.8333 16.6666H7.5M17.5 11.6666H7.5M7.5 16.6666V11.6666M12.5 6.66665V16.6666" stroke="#93939A" stroke-width="1.2" stroke-linecap="round" stroke-linejoin="round"/>
</svg>
