<svg width="20" height="20" viewBox="0 0 20 20" fill="none" xmlns="http://www.w3.org/2000/svg">
<path d="M12.5 15.94C13.2108 16.1462 13.9473 16.2505 14.6875 16.25C15.8779 16.2528 17.053 15.9814 18.1216 15.4567C18.1239 15.4089 18.125 15.3608 18.125 15.3125C18.125 14.5774 17.8895 13.8617 17.4528 13.2703C17.0162 12.6789 16.4014 12.2431 15.6989 12.0269C14.9963 11.8106 14.2429 11.8252 13.5493 12.0686C12.8557 12.312 12.2583 12.7713 11.845 13.3792M12.5 15.94V15.9375C12.5 15.01 12.2625 14.1375 11.845 13.3792M12.5 15.94V16.0283C10.8965 16.995 9.05893 17.5039 7.18665 17.5C5.24415 17.5 3.42665 16.9625 1.87498 16.0283L1.87415 15.9375C1.87351 14.7579 2.26549 13.6116 2.9883 12.6794C3.71111 11.7472 4.72362 11.082 5.86622 10.7888C7.00882 10.4956 8.2165 10.5911 9.29887 11.0601C10.3812 11.5291 11.2776 12.345 11.845 13.3792M9.99998 5.3125C9.99998 6.05842 9.70366 6.77379 9.17622 7.30124C8.64877 7.82868 7.9334 8.125 7.18748 8.125C6.44156 8.125 5.72619 7.82868 5.19874 7.30124C4.6713 6.77379 4.37498 6.05842 4.37498 5.3125C4.37498 4.56658 4.6713 3.85121 5.19874 3.32376C5.72619 2.79632 6.44156 2.5 7.18748 2.5C7.9334 2.5 8.64877 2.79632 9.17622 3.32376C9.70366 3.85121 9.99998 4.56658 9.99998 5.3125ZM16.875 7.1875C16.875 7.76766 16.6445 8.32406 16.2343 8.7343C15.824 9.14453 15.2676 9.375 14.6875 9.375C14.1073 9.375 13.5509 9.14453 13.1407 8.7343C12.7304 8.32406 12.5 7.76766 12.5 7.1875C12.5 6.60734 12.7304 6.05094 13.1407 5.6407C13.5509 5.23047 14.1073 5 14.6875 5C15.2676 5 15.824 5.23047 16.2343 5.6407C16.6445 6.05094 16.875 6.60734 16.875 7.1875Z" stroke="#93939A" stroke-width="1.2" stroke-linecap="round" stroke-linejoin="round"/>
</svg>
